<svg width="22" height="22" viewBox="0 0 22 22" fill="none" xmlns="http://www.w3.org/2000/svg">
<g id="vuesax/linear/messages-2">
<g id="messages-2">
<path id="Vector" d="M17.0854 15.2928L17.4321 18.1017C17.521 18.8395 16.7298 19.355 16.0987 18.9728L12.3743 16.7595C11.9654 16.7595 11.5654 16.7328 11.1743 16.6795C11.8321 15.9062 12.2232 14.9284 12.2232 13.8706C12.2232 11.3461 10.0365 9.30173 7.33428 9.30173C6.30317 9.30173 5.35206 9.59504 4.56095 10.1106C4.53429 9.88837 4.52539 9.66614 4.52539 9.43503C4.52539 5.39059 8.0365 2.1106 12.3743 2.1106C16.7121 2.1106 20.2232 5.39059 20.2232 9.43503C20.2232 11.835 18.9876 13.9595 17.0854 15.2928Z" stroke="#F42A41" stroke-width="1.2" stroke-linecap="round" stroke-linejoin="round"/>
<path id="Vector_2" d="M12.2226 13.8709C12.2226 14.9286 11.8315 15.9064 11.1737 16.6798C10.2937 17.7464 8.89816 18.4309 7.33371 18.4309L5.01371 19.8086C4.6226 20.0486 4.12482 19.7197 4.17816 19.2664L4.40038 17.5153C3.20927 16.6887 2.44482 15.3642 2.44482 13.8709C2.44482 12.3064 3.28038 10.9286 4.56038 10.1109C5.3515 9.59531 6.3026 9.302 7.33371 9.302C10.0359 9.302 12.2226 11.3464 12.2226 13.8709Z" stroke="#F42A41" stroke-width="1.2" stroke-linecap="round" stroke-linejoin="round"/>
</g>
</g>
</svg>
