<svg width="20" height="20" viewBox="0 0 20 20" fill="none" xmlns="http://www.w3.org/2000/svg">
<g id="Iconsax/Linear/searchnormal1">
<path id="Vector" d="M18.3346 18.3332L16.668 16.6665M9.58464 17.4998C10.6243 17.4998 11.6537 17.2951 12.6142 16.8972C13.5747 16.4994 14.4474 15.9162 15.1826 15.1811C15.9177 14.446 16.5008 13.5732 16.8987 12.6127C17.2965 11.6523 17.5013 10.6228 17.5013 9.58317C17.5013 8.54354 17.2965 7.51409 16.8987 6.55359C16.5008 5.5931 15.9177 4.72037 15.1826 3.98524C14.4474 3.25011 13.5747 2.66697 12.6142 2.26912C11.6537 1.87127 10.6243 1.6665 9.58464 1.6665C7.485 1.6665 5.47137 2.50058 3.98671 3.98524C2.50204 5.4699 1.66797 7.48354 1.66797 9.58317C1.66797 11.6828 2.50204 13.6964 3.98671 15.1811C5.47137 16.6658 7.485 17.4998 9.58464 17.4998Z" stroke="black" stroke-opacity="0.5" stroke-width="1.25" stroke-linecap="round" stroke-linejoin="round"/>
</g>
</svg>
