<svg width="20" height="20" viewBox="0 0 20 20" fill="none" xmlns="http://www.w3.org/2000/svg">
<g id="vuesax/linear/user-add">
<g id="user-add">
<path id="Vector" d="M9.9998 10C12.301 10 14.1665 8.13452 14.1665 5.83333C14.1665 3.53215 12.301 1.66667 9.9998 1.66667C7.69861 1.66667 5.83313 3.53215 5.83313 5.83333C5.83313 8.13452 7.69861 10 9.9998 10Z" stroke="#666666" stroke-width="1.2" stroke-linecap="round" stroke-linejoin="round"/>
<path id="Vector_2" d="M2.84143 18.3333C2.84143 15.1083 6.04976 12.5 9.99976 12.5C10.7998 12.5 11.5748 12.6083 12.2998 12.8083" stroke="#666666" stroke-width="1.2" stroke-linecap="round" stroke-linejoin="round"/>
<path id="Vector_3" d="M18.333 15C18.333 15.2667 18.2997 15.525 18.2331 15.775C18.1581 16.1083 18.0247 16.4333 17.8497 16.7167C17.2747 17.6833 16.2164 18.3333 14.9997 18.3333C14.1414 18.3333 13.3664 18.0083 12.783 17.475C12.533 17.2583 12.3164 17 12.1497 16.7167C11.8414 16.2167 11.6664 15.625 11.6664 15C11.6664 14.1 12.0247 13.275 12.6081 12.675C13.2164 12.05 14.0664 11.6667 14.9997 11.6667C15.983 11.6667 16.8747 12.0917 17.4747 12.775C18.008 13.3667 18.333 14.15 18.333 15Z" stroke="#666666" stroke-width="1.2" stroke-miterlimit="10" stroke-linecap="round" stroke-linejoin="round"/>
<g id="Group">
<path id="Vector_4" d="M16.2414 14.9833H13.7581" stroke="#666666" stroke-width="1.2" stroke-miterlimit="10" stroke-linecap="round" stroke-linejoin="round"/>
<path id="Vector_5" d="M14.9998 13.7667V16.2583" stroke="#666666" stroke-width="1.2" stroke-miterlimit="10" stroke-linecap="round" stroke-linejoin="round"/>
</g>
</g>
</g>
</svg>
